<?xml version="1.0" encoding="UTF-8"?>
<svg width="95px" height="111px" viewBox="0 0 95 111" version="1.1" xmlns="http://www.w3.org/2000/svg" xmlns:xlink="http://www.w3.org/1999/xlink">
    <!-- Generator: Sketch 41 (35326) - http://www.bohemiancoding.com/sketch -->
    <title>Page 1</title>
    <desc>Created with Sketch.</desc>
    <defs></defs>
    <g id="Page-1" stroke="none" stroke-width="1" fill="none" fill-rule="evenodd">
        <g id="Home" transform="translate(-97.000000, -23.000000)" fill="#FFFFFF">
            <g id="Page-1" transform="translate(97.000000, 23.000000)">
                <g id="Group-3" transform="translate(0.000000, 0.030397)">
                    <path d="M93.6309344,74.8018376 C93.6309344,84.8106249 87.6729487,91.5516309 79.3911398,95.5715573 C75.7895442,97.3196249 50.534252,106.279033 47.6850024,109.156141 C47.6468823,109.194774 47.6005079,109.22068 47.5514321,109.236702 C47.5007054,109.303486 47.4643863,109.366227 47.4439755,109.424775 C47.4234147,109.366227 47.3870956,109.303486 47.3363689,109.236702 C47.287293,109.22068 47.2410687,109.194774 47.2027986,109.156141 C44.353549,106.279033 19.0973562,97.3196249 15.4956106,95.5715573 C7.21380174,91.5516309 1.25581596,84.8106249 1.25581596,74.8018376 C1.25581596,74.7898584 1.25611611,74.7765315 1.25611611,74.7644025 C1.25611611,74.7530223 1.25581596,74.741642 1.25581596,74.7302618 C1.25581596,74.0974595 1.29453633,73.4932576 1.33820932,72.8923501 C1.37993128,72.2396324 1.42855687,71.5822727 1.46172433,71.0757015 L1.45857267,71.0757015 C1.46022354,71.0532405 1.46232464,71.0286831 1.46442575,71.0039759 L1.45857267,71.0039759 C1.56107662,69.5907276 1.70320142,68.2271929 1.9026564,66.9031898 L1.92952054,66.9031898 C1.96028673,66.6802265 1.99030253,66.4669964 2.01896761,66.271286 L2.01386493,66.271286 C2.0176169,66.2483757 2.02196919,66.2233691 2.02602133,66.1995604 L2.01386493,66.1995604 C2.24633728,64.7770281 2.5076248,63.4073542 2.82384123,62.0966779 L2.86271169,62.0966779 C2.91313823,61.8738644 2.96206398,61.6606343 3.00783807,61.4646243 L3.00228515,61.4646243 C3.0061872,61.4496503 3.01309084,61.4241944 3.02149526,61.3930485 L3.00228515,61.3930485 C3.07612401,61.1046488 3.14440995,60.8105589 3.22155055,60.5282986 L3.22155055,60.679087 C3.43826461,59.913016 3.75748262,58.7937077 3.92677172,58.1966933 L3.92677172,58.0662696 C4.01171643,57.799133 4.10086335,57.5534093 4.18790916,57.2922623 L4.2126722,57.2922623 C4.28561058,57.0790322 4.36185071,56.856668 4.42923618,56.6602088 L4.42488389,56.6602088 C4.43283807,56.6372985 4.44169273,56.6122919 4.44994708,56.5886329 L4.42488389,56.5886329 C4.93395182,55.115189 5.44737204,53.745515 5.97414929,52.4856007 L6.00701659,52.4856007 C6.09781438,52.2602416 6.18456003,52.0471612 6.26455213,51.8536969 L6.26065008,51.8536969 C6.27040521,51.8309363 6.28091074,51.8065287 6.29171643,51.7819713 L6.26065008,51.7819713 C6.7983831,50.5316403 7.31735624,49.3792394 7.79670853,48.3680436 L7.79670853,48.4719633 C8.0447891,47.9373907 8.27771169,47.4389054 8.46080806,47.0492813 L8.45675592,47.0492813 C8.46831201,47.0248736 8.47941785,47.0018137 8.49112401,46.9775557 L8.45675592,46.9775557 C9.04956793,45.7439956 9.5619376,44.6757488 9.82517615,43.9495086 C10.7841809,41.3104867 11.1752867,38.7446877 11.1653815,36.3012265 C11.0862899,25.401934 3.01249052,16.9648203 1.49879384,15.4784987 C1.45166904,15.4320792 1.42105292,15.3756271 1.40544471,15.3158808 C1.30894392,15.2225926 1.25581596,15.1736276 1.25581596,15.1736276 L13.7953657,1.20301307 C13.7953657,1.20301307 26.3877433,9.06587299 47.4439755,9.06587299 C68.5000577,9.06587299 81.0913847,1.20301307 81.0913847,1.20301307 L93.6309344,15.1736276 C93.6309344,15.1736276 93.5778065,15.2225926 93.4813057,15.3158808 C93.4656975,15.3754774 93.4350814,15.4320792 93.3879566,15.4784987 C91.8739597,16.96497 83.797609,25.4047791 83.7213689,36.3069166 C83.712064,38.7485809 84.1031698,41.312583 85.0615742,43.9495086 C85.3260134,44.6757488 85.8371825,45.7439956 86.4299945,46.9775557 L86.3956264,46.9775557 C86.4073325,47.0018137 86.4184384,47.0248736 86.4299945,47.0492813 L86.4376485,47.0676994 C86.5263452,47.2542757 86.6243468,47.4616659 86.7277512,47.6811851 L86.767222,47.6811851 C87.3325695,48.8633843 87.9594494,50.2282666 88.6261003,51.7819713 L88.595184,51.7819713 C88.6053894,51.8056302 88.6161951,51.8304871 88.6261003,51.8536969 L88.6050893,51.8536969 C88.7096943,52.0862434 88.8076959,52.3132496 88.8812346,52.4856007 L88.9126011,52.4856007 C89.332372,53.4908069 89.7444889,54.5437802 90.1566058,55.6851003 L90.1566058,55.7773403 C90.3239439,56.2981369 90.5871825,57.127548 90.861827,58.0105662 L90.861827,57.7748751 C91.2320719,58.9215858 91.5637464,60.1335833 91.8844652,61.3930485 L91.8657054,61.3930485 C91.8723088,61.4180551 91.8787622,61.4426125 91.8844652,61.4646243 L91.8808633,61.4646243 C91.9272378,61.6597358 91.9767638,61.8729659 92.0277907,62.0966779 L92.0629092,62.0966779 C92.3803262,63.4073542 92.640263,64.7770281 92.8728855,66.1995604 L92.860579,66.1995604 C92.8649313,66.2242675 92.8691335,66.2486752 92.8728855,66.271286 L92.8686833,66.271286 C92.8974984,66.4669964 92.9276643,66.6797773 92.9584305,66.9031898 L92.984094,66.9031898 C93.183549,68.2271929 93.3256738,69.5907276 93.4281777,71.0039759 L93.4226248,71.0039759 C93.4244258,71.0276349 93.4265269,71.0527912 93.4281777,71.0757015 L93.4206738,71.0757015 C93.4341809,71.2712622 93.4493389,71.4849416 93.4650972,71.7076053 L93.466748,71.7076053 C93.4715506,71.7913101 93.4771035,71.8742662 93.4826564,71.9575218 C93.4939123,72.1195407 93.5053183,72.2847042 93.5167243,72.4515148 C93.571203,73.1991678 93.6309344,73.9424784 93.6309344,74.7302618 C93.6309344,74.7417918 93.6306343,74.753172 93.6306343,74.7648517 C93.6306343,74.776831 93.6309344,74.7901578 93.6309344,74.8018376 M94.7670324,72.3285781 L94.777688,72.3285781 L94.680737,70.9857076 C94.6697812,70.8331223 94.6553736,70.665563 94.6429171,70.5267538 L94.5639755,69.200205 L94.5102472,69.200205 C94.4484147,68.6422729 94.3783278,68.0662222 94.3082409,67.5241625 L94.3553657,67.5241625 L94.1116374,66.0653931 L93.9648602,65.1383513 L93.9455,65.1311638 C93.801124,64.3595523 93.624481,63.5042361 93.4530908,62.7176506 L93.4991651,62.7176506 L93.075342,61.0564324 L92.9008002,60.3259995 L92.8698839,60.314769 C92.4705237,58.9262278 91.7972694,56.7838942 91.4124668,55.5817796 L91.4124668,55.5373067 L91.2891019,55.1984446 L90.9968981,55.2730152 L91.2790466,55.1708923 C91.0203104,54.4603749 90.7608239,53.7784579 90.4927828,53.1065734 L90.5300024,53.1065734 L89.780658,51.3604525 C89.1849945,49.9723605 88.2187859,47.8912707 87.588154,46.5647219 L87.5624905,46.5075211 C87.0358633,45.4117221 86.4912267,44.2784879 86.2422457,43.5940253 C81.2073957,29.7394595 92.9170087,17.6986972 94.2689202,16.3715495 C94.8824431,15.7691445 94.9135095,14.7961324 94.3396074,14.1562924 L82.2207291,0.654514581 C81.9151682,0.31430476 81.4787385,0.11934297 81.0226485,0.11934297 C80.7392994,0.11934297 80.4600024,0.19496179 80.2153736,0.337364757 C78.8874747,1.10987465 66.6863531,7.88472199 47.4439755,7.88472199 C28.2015979,7.88472199 15.9994258,1.10987465 14.6719771,0.337813978 C14.426748,0.19496179 14.147451,0.11934297 13.8641019,0.11934297 C13.4075616,0.11934297 12.9708318,0.314753981 12.6660213,0.654664322 L0.54714297,14.1565919 C-0.0263088468,14.7956832 0.00430726698,15.7682461 0.617830174,16.3715495 C1.96974171,17.6986972 13.6793547,29.7394595 8.64420458,43.5949237 C8.39957583,44.269803 7.87715087,45.3567674 7.32425987,46.5075211 L6.46610821,48.3021579 L6.49162164,48.3021579 C6.02757741,49.3049683 5.51805924,50.4182869 5.18713507,51.1743254 L4.36004976,53.1065734 L4.40987599,53.1065734 C4.18070537,53.6923572 3.94057899,54.3193196 3.71651106,54.923222 L3.68709558,54.9254681 L3.38033412,55.8480177 L3.23775908,56.2506692 L2.66625829,57.9130853 L2.68036572,57.9130853 L2.67106082,57.9424344 L2.67106082,58.022246 C2.67106082,58.022246 2.28745893,59.3705071 2.18810664,59.7201505 L2.13452844,59.7171557 L1.82536572,61.0076171 L1.7861951,61.1513677 L1.3862346,62.7176506 L1.43861216,62.7176506 C1.26271959,63.524451 1.08382543,64.3848584 0.942751185,65.12757 L0.916637441,65.1388005 L0.810831754,65.8533609 L0.77421248,66.0713827 L0.543841232,67.5241625 L0.579560032,67.5241625 C0.46700079,68.3934046 0.356692733,69.334522 0.278351501,70.1518042 L0.25914139,70.1673772 L0.226274092,70.7140788 L0.108011848,72.3285781 L0.116866509,72.3285781 C0.0572851501,73.2053072 -4.50236967e-05,74.1537618 -4.50236967e-05,74.8019873 C-4.50236967e-05,84.3804211 5.16822512,91.952186 14.9461714,96.6982029 C16.1080829,97.2622744 19.2828539,98.4886469 23.3024194,100.041154 C31.2423483,103.107984 44.5310924,108.241079 46.3098286,110.037063 C46.6063847,110.336544 47.0197022,110.508296 47.4439755,110.508296 C47.8682488,110.508296 48.2815664,110.336544 48.5784226,110.036914 C50.3568586,108.240929 63.6454526,103.107834 71.5853815,100.040854 C75.6043468,98.4883474 78.7786675,97.2622744 79.940579,96.6982029 C89.7183752,91.952186 94.8866453,84.3804211 94.8866453,74.8019873 C94.8866453,74.1994326 94.8293152,73.2439401 94.7670324,72.3285781" id="Fill-1"></path>
                </g>
                <path d="M3.18836809,74.6038211 C3.18836809,74.6078641 3.18863052,74.6116076 3.18889295,74.6156506 L3.26289848,74.2574719 C3.22169682,74.394634 3.19256698,74.5157738 3.18836809,74.6038211" id="Fill-4"></path>
                <path d="M81.5288199,16.4505075 C81.4306682,16.775893 81.2841912,17.0629451 81.0913397,17.3107652 C80.8984882,17.5590345 80.6627141,17.7551942 80.3850679,17.8998433 C80.1074218,18.0446421 79.7945071,18.1169666 79.4461738,18.1169666 C78.711237,18.1169666 78.1437883,17.88442 77.7438278,17.4193268 C77.3438673,16.9543834 77.1432117,16.3031631 77.1432117,15.4659654 C77.1432117,14.6081036 77.3372638,13.9312777 77.7228167,13.4350386 C78.1085197,12.9389492 78.6837725,12.6809467 79.4461738,12.6599831 C80.1426904,12.6809467 80.689128,12.9417942 81.0847362,13.4431246 C81.4803444,13.9444549 81.6775482,14.598071 81.6775482,15.4041227 C81.6775482,15.7760775 81.6280221,16.1248225 81.5288199,16.4505075 M82.1932196,13.4350386 C81.9254787,12.9389492 81.5673902,12.54648 81.1200047,12.2570321 C80.6726193,11.967734 80.1140253,11.8227854 79.4461738,11.8227854 C78.8997362,11.8227854 78.4269874,11.913528 78.0270269,12.0941147 C77.6258657,12.2753004 77.2941912,12.5283614 77.0309526,12.853747 C76.7663633,13.179432 76.5691596,13.5618686 76.4379905,14.0010567 C76.3057709,14.4405443 76.2397362,14.9182156 76.2397362,15.4349692 C76.2397362,15.9620548 76.3123744,16.4428707 76.4590016,16.876818 C76.6044281,17.3107652 76.8115371,17.6828697 77.0804787,17.9929817 C77.3482196,18.302944 77.6710395,18.5407315 78.0478878,18.705895 C78.4236856,18.8713579 78.8479589,18.9541643 79.3184566,18.9541643 C79.9123191,18.9541643 80.4324929,18.8095152 80.8797283,18.5200673 C81.3271137,18.2307692 81.7006603,17.8068546 82.0026193,17.2489224 L82.0312844,17.2797689 C82.0114739,17.7758583 81.9673507,18.3057891 81.8968136,18.8689621 C81.8262765,19.4321351 81.6940569,19.9568249 81.5012054,20.4424325 C81.3085039,20.9281898 81.0352101,21.3312906 80.6825245,21.6515849 C80.3287883,21.972029 79.8561896,22.1322511 79.2621769,22.1322511 C78.7068847,22.1322511 78.2716556,21.9825109 77.9564897,21.6825812 C77.6402733,21.3829509 77.4309131,20.9382224 77.3273586,20.3492941 L76.4094755,20.3492941 C76.4468452,20.7937231 76.5460474,21.1812508 76.7058815,21.5118773 C76.8655656,21.8428032 77.0728246,22.1165284 77.3273586,22.3336517 C77.5818926,22.5506253 77.8782986,22.7111469 78.2165766,22.8141681 C78.5559052,22.9174889 78.9184961,22.9691493 79.3052496,22.9691493 C79.8318768,22.9691493 80.316782,22.8504053 80.7596651,22.6126178 C81.2026983,22.37498 81.5861501,22.0184485 81.9112212,21.5430233 C82.2362923,21.0677477 82.4875245,20.4812152 82.6659684,19.7834257 C82.845613,19.085786 82.9347599,18.2719478 82.9347599,17.3419111 C82.9347599,16.5771877 82.8786303,15.8590336 82.7651706,15.1869994 C82.6527615,14.5152647 82.4621611,13.9312777 82.1932196,13.4350386" id="Fill-6"></path>
                <path d="M47.382203,23.0466848 C48.7012472,23.0466848 49.6874163,22.6618524 50.3419107,21.8917383 C50.9964052,21.1219238 51.3237275,20.0081559 51.3237275,18.5508839 L51.3237275,11.5903586 L50.3627717,11.5903586 L50.3627717,18.2409216 C50.3627717,18.902474 50.3109945,19.4761288 50.20744,19.9617364 C50.1038855,20.4476435 49.9341461,20.85314 49.6994226,21.1788251 C49.4636485,21.5042106 49.1550861,21.747239 48.7738855,21.9074611 C48.3926848,22.0676831 47.9287907,22.1476444 47.382203,22.1476444 C46.3376532,22.1476444 45.5794542,21.8427733 45.1089566,21.2328813 C44.6374084,20.6232888 44.4016343,19.6261685 44.4016343,18.2409216 L44.4016343,11.5903586 L43.4418791,11.5903586 L43.4418791,18.5508839 C43.4418791,19.9771596 43.7669502,21.083141 44.4158918,21.8686783 C45.066034,22.6542156 46.0544542,23.0466848 47.382203,23.0466848" id="Fill-8"></path>
                <path d="M38.1483381,38.3894589 C38.6375956,40.8326207 39.7945545,42.7991592 41.9388831,43.6377045 C43.2247599,44.1409815 44.0345861,42.7274336 44.9877378,41.5007616 C42.227485,41.0473482 40.0622954,40.0017121 38.1483381,38.3894589" id="Fill-10"></path>
                <path d="M50.7628223,35.8523052 C49.6058633,35.6503057 48.7639202,36.0838037 48.5644652,37.4816288 C48.2228855,39.8788203 47.0560213,41.8889332 45.3095521,43.5712648 C44.7850261,44.0769376 43.8836517,44.3262551 44.5525537,45.1862133 C45.0791809,45.8621407 45.7678934,45.5979989 46.4312425,45.1931013 C49.1970482,43.5050796 50.8741809,41.2231881 51.524173,37.7809595 C51.6619455,37.0490292 52.0553025,36.0779638 50.7628223,35.8523052" id="Fill-12"></path>
                <polygon id="Fill-14" points="29.3452899 12.4896236 32.5650845 12.4896236 32.5650845 22.7523703 33.5258902 22.7523703 33.5258902 12.4896236 36.7456848 12.4896236 36.7456848 11.5902838 29.3452899 11.5902838"></polygon>
                <path d="M42.1085474,30.4907662 C47.2191872,27.6455519 52.3649455,28.065723 58.0551904,30.8472977 C56.699827,28.6863963 55.3819834,27.4797895 53.7522757,26.5746097 C49.6531682,24.2987078 43.7514621,24.9189319 40.965846,27.8739058 C40.2507196,28.6330888 39.8319992,29.4341991 40.3356643,30.3841511 C40.7884526,31.2388684 41.4462488,30.8595764 42.1085474,30.4907662" id="Fill-16"></path>
                <polygon id="Fill-18" points="21.9008918 17.4193718 27.1415 17.4193718 27.1415 16.5203314 21.9008918 16.5203314 21.9008918 12.4896236 27.7056469 12.4896236 27.7056469 11.5902838 20.9400861 11.5902838 20.9400861 22.7523703 27.8477717 22.7523703 27.8477717 21.8530305 21.9008918 21.8530305"></polygon>
                <path d="M39.9763752,81.7948864 C39.8386027,81.7071386 39.6314937,81.6632647 39.3548981,81.6632647 L37.8695664,81.6632647 L37.8695664,83.6652917 L39.3173784,83.6652917 C39.6050798,83.6652917 39.8198428,83.6248619 39.9642188,83.5440021 C40.2187528,83.4024976 40.3466201,83.1226331 40.3466201,82.7047081 C40.3466201,82.2530915 40.2232551,81.9498675 39.9763752,81.7948864" id="Fill-20"></path>
                <path d="M43.8429202,39.716996 C46.4059692,40.2911001 46.8224384,38.799837 46.9998318,36.6649904 C42.9712615,36.7617226 40.3213167,34.600971 38.353331,30.9154145 C37.8166485,35.5277133 40.1373199,38.8866864 43.8429202,39.716996" id="Fill-22"></path>
                <path d="M17.5792622,17.5743829 C17.3059684,17.3470772 16.9930537,17.166191 16.6393175,17.031874 C16.2855814,16.8977067 15.9208894,16.7815083 15.5452417,16.6829792 C15.1682433,16.5848994 14.7981485,16.4917609 14.4355577,16.4040132 C14.0729668,16.3164151 13.7412923,16.2023131 13.440534,16.0629049 C13.138575,15.923347 12.8840411,15.7450064 12.6779826,15.5281825 C12.4698231,15.3109094 12.338654,15.021761 12.2813239,14.6598389 C12.2350995,14.3706905 12.2483065,14.0812426 12.3243965,13.7919444 C12.3992859,13.5024966 12.5358578,13.238804 12.7342622,13.0011662 C12.931466,12.7633787 13.1981564,12.5696149 13.5319321,12.4198746 C13.8658578,12.2699847 14.2779747,12.1949648 14.7672322,12.1949648 C15.087951,12.1949648 15.3986145,12.2413843 15.7005735,12.3346724 C16.0013318,12.4275114 16.2702733,12.5723102 16.5048468,12.7686196 C16.7407709,12.9650788 16.927019,13.2182896 17.0635908,13.5282519 C17.2001627,13.8383639 17.2685987,14.2052275 17.2685987,14.6288426 L18.1864818,14.6288426 C18.1864818,14.1742313 18.1159447,13.7450757 17.9736698,13.3422745 C17.8327457,12.939024 17.6211343,12.5853376 17.3389858,12.280167 C17.0559368,11.9755953 16.6999494,11.7351125 16.2723744,11.5594672 C15.8437488,11.3839717 15.342485,11.2959244 14.7672322,11.2959244 C14.2030853,11.2959244 13.7039226,11.3787308 13.2707946,11.5438942 C12.8367662,11.7093572 12.4774771,11.931422 12.1899258,12.2106875 C11.9023744,12.4896536 11.6862607,12.8100977 11.5408341,13.1715706 C11.394357,13.5334928 11.3215687,13.9055973 11.3215687,14.2880338 C11.3215687,14.8357836 11.4108657,15.2875499 11.5893096,15.6443809 C11.7679036,16.0009124 12.0014265,16.2930556 12.289128,16.5203613 C12.5766793,16.747667 12.9050521,16.9285532 13.2773981,17.0628702 C13.6498942,17.1973369 14.0310948,17.3135354 14.4213002,17.4116152 C14.812406,17.5099946 15.1936066,17.61062 15.5661027,17.7139408 C15.9373981,17.8174113 16.2680221,17.9542738 16.5545229,18.1246782 C16.8420742,18.2953821 17.0745466,18.5149013 17.2541912,18.7833855 C17.4326351,19.0524687 17.5219321,19.4037593 17.5219321,19.8378563 C17.5219321,20.1478186 17.4734566,20.4425074 17.3742543,20.7214734 C17.2752022,21.0004395 17.1219716,21.2461632 16.9148626,21.4577462 C16.7076035,21.6696286 16.4398626,21.8376372 16.1093886,21.9616221 C15.7798152,22.0854573 15.3887093,22.1475995 14.9369716,22.1475995 C14.5512686,22.1475995 14.1886777,22.0987842 13.8493491,22.0002551 C13.5110711,21.9021752 13.2113633,21.7444988 12.9524771,21.5275251 C12.6934408,21.3104018 12.4818294,21.0290399 12.3165924,20.6826907 C12.152406,20.3363416 12.0511027,19.915272 12.0135829,19.4191826 L11.0814423,19.4191826 C11.0814423,20.0290746 11.1728404,20.5587058 11.3568373,21.0080763 C11.5408341,21.4577462 11.7965687,21.8350916 12.1270427,22.1399627 C12.4554155,22.4448338 12.8466714,22.6722893 13.2994597,22.8218798 C13.7513476,22.97162 14.240455,23.0466399 14.7672322,23.0466399 C15.9452022,23.0466399 16.8585829,22.7624329 17.5087251,22.1941687 C18.1578167,21.6259045 18.4828878,20.8247942 18.4828878,19.7912871 C18.4828878,19.2540191 18.4001943,18.806745 18.2360079,18.4503633 C18.0707709,18.0938317 17.8515055,17.801988 17.5792622,17.5743829" id="Fill-24"></path>
                <path d="M73.3505506,20.3726536 C73.2711588,20.6980391 73.1411904,20.9927279 72.9627464,21.2562707 C72.7841524,21.5198135 72.5506295,21.7318457 72.2641288,21.8917683 C71.9764273,22.0522898 71.62059,22.1322511 71.1975174,22.1322511 C70.7831493,22.1322511 70.4337654,22.0494447 70.151767,21.8841315 C69.8685679,21.7188183 69.6360956,21.5069359 69.4520987,21.248634 C69.2691524,20.9901823 69.1369329,20.7035795 69.0575411,20.3880768 C68.9770987,20.0730233 68.9364273,19.760216 68.9364273,19.4502537 C68.9364273,19.0781492 68.9892551,18.7292544 69.0928096,18.4038689 C69.1963641,18.0781839 69.3440419,17.7915811 69.5379439,17.5433118 C69.7297449,17.2953419 69.965519,17.0991822 70.2431651,16.9543834 C70.5209613,16.8097343 70.833876,16.7371103 71.1831098,16.7371103 C71.964421,16.7371103 72.5417749,16.9672611 72.9130703,17.4271133 C73.2845158,17.8871153 73.4718144,18.5407315 73.4718144,19.3881115 C73.4718144,19.7190374 73.4309929,20.0469685 73.3505506,20.3726536 M71.2107243,15.8999126 C70.8437812,15.8999126 70.5286153,15.9491772 70.2652267,16.047257 C70.0007875,16.1456364 69.7705664,16.2748622 69.5732125,16.4347848 C69.3749581,16.5953063 69.1986153,16.7787381 69.0432836,16.9853796 C68.8879518,17.1920212 68.7390735,17.3988124 68.5981493,17.605454 C68.635519,17.0887004 68.6872962,16.5409506 68.753481,15.9620548 C68.8195158,15.3836083 68.9463325,14.8487362 69.1346817,14.3575882 C69.3231809,13.8668894 69.5942235,13.4612431 69.9467591,13.140799 C70.3004953,12.8205046 70.7831493,12.6599831 71.3947212,12.6599831 C71.9312536,12.6599831 72.3555269,12.8282911 72.6663404,13.163859 C72.9770039,13.5000258 73.184113,13.9468507 73.2878175,14.5047828 L74.2199581,14.5047828 C74.1251082,13.6267061 73.8144447,12.9599128 73.2878175,12.505002 C72.7599897,12.0503906 72.1009929,11.8227854 71.3097765,11.8227854 C70.5760403,11.8227854 69.9754242,12.0089126 69.5092788,12.381017 C69.0432836,12.7532713 68.6763404,13.2286965 68.4073989,13.8072928 C68.1386074,14.3860388 67.95341,15.0243815 67.8498555,15.7218715 C67.7463009,16.4195113 67.6934731,17.0936418 67.6934731,17.7448621 C67.6934731,18.705895 67.7838207,19.5200326 67.9622646,20.1865264 C68.1408586,20.8530202 68.3854874,21.3934328 68.6972014,21.8065661 C69.008015,22.2199989 69.3749581,22.517383 69.7980308,22.6979697 C70.2223041,22.8787062 70.6839471,22.9691493 71.1831098,22.9691493 C72.2001951,22.9691493 72.9858586,22.6542456 73.5423515,22.0236894 C74.0976438,21.3934328 74.3752899,20.5252389 74.3752899,19.4192575 C74.3752899,18.3239076 74.0998949,17.4633505 73.548955,16.8380352 C72.998015,16.21272 72.218955,15.8999126 71.2107243,15.8999126" id="Fill-26"></path>
                <path d="M93.4825964,71.9878891 C93.5014914,72.1530526 93.5211737,72.3176171 93.5421682,72.4818821 C93.5224859,72.3152212 93.5025411,72.149908 93.4825964,71.9878891" id="Fill-28"></path>
                <path d="M56.9852172,32.3589404 C53.460312,30.0900763 49.7370024,29.4150473 45.51453,30.6188091 C44.1117417,31.0184657 41.9719155,31.597062 42.2374052,33.0299264 C42.5723815,34.8326491 44.8687401,34.9599283 46.6417733,35.0461787 C46.9833531,35.0629496 47.3436927,34.9829883 47.6741667,34.8787691 C51.4360466,33.6941741 55.1461493,33.6474551 58.8882188,35.6714939 C59.0953278,33.8040834 58.0254147,33.0279797 56.9852172,32.3589404" id="Fill-30"></path>
                <path d="M79.3911398,95.5303488 C75.7233594,97.3104608 49.5998602,106.569199 47.5514321,109.267069 C47.6005079,109.251047 47.6468823,109.225142 47.6850024,109.186659 C50.534252,106.3094 75.7893942,97.3499922 79.3911398,95.6019247 C87.6729487,91.5819982 93.6309344,84.8409922 93.6309344,74.8322049 C93.6309344,74.8205252 93.6306343,74.8071983 93.6306343,74.7952191 C93.616827,84.7848396 87.6633436,91.5150643 79.3911398,95.5303488" id="Fill-32"></path>
                <path d="M1.40541469,15.3462631 C1.42102291,15.4060094 1.45163902,15.4624615 1.49876382,15.508881 C3.01246051,16.9952026 11.08641,25.4323163 11.1653515,36.3316088 C11.1203278,25.1451145 2.63786335,16.5377462 1.40541469,15.3462631" id="Fill-34"></path>
                <path d="M15.4955806,95.5303488 C7.2232267,91.5149146 1.26974329,84.7845401 1.2560861,74.7947698 C1.2560861,74.8068988 1.25578594,74.8203754 1.25578594,74.8322049 C1.25578594,84.8409922 7.21377172,91.5819982 15.4955806,95.6019247 C19.0973262,97.3499922 44.353669,106.3094 47.2027686,109.186659 C47.2410387,109.225142 47.287263,109.251047 47.3364889,109.267069 C45.2879107,106.569049 19.163361,97.3104608 15.4955806,95.5303488" id="Fill-36"></path>
                <path d="M60.1443499,15.7837142 C60.007778,16.078403 59.8149265,16.3109496 59.5647449,16.4815037 C59.3157638,16.6519081 59.0115537,16.7682563 58.6534652,16.8303985 C58.2964273,16.8922412 57.8909139,16.9232374 57.4391761,16.9232374 L55.2354163,16.9232374 L55.2354163,12.4895787 L57.7213246,12.4895787 C58.6347054,12.4895787 59.3013562,12.6704649 59.7200766,13.0322373 C60.138797,13.3941595 60.3493578,13.9263363 60.3493578,14.6287678 C60.3493578,15.1043428 60.2809218,15.4893249 60.1443499,15.7837142 M60.6391603,12.5207247 C60.3889787,12.2312768 60.0496501,12.0039711 59.6210245,11.8385082 C59.1934494,11.6733447 58.649113,11.5902388 57.9901161,11.5902388 L54.2756611,11.5902388 L54.2756611,22.7523254 L55.2354163,22.7523254 L55.2354163,17.8222778 L57.4105111,17.8222778 C57.8822093,17.8222778 58.3504558,17.7758583 58.8166011,17.6828697 C59.2825964,17.5897312 59.6992156,17.4271133 60.0661588,17.1945667 C60.4341524,16.9620202 60.7328096,16.6442714 60.9630308,16.2410209 C61.1944526,15.8380699 61.309113,15.3264075 61.309113,14.7063332 C61.309113,14.2931999 61.2604874,13.8978857 61.1614352,13.5205403 C61.062233,13.1431949 60.8881414,12.8100228 60.6391603,12.5207247" id="Fill-38"></path>
                <path d="M83.7213539,36.3372839 C83.797594,25.4352961 91.8739447,16.9954871 93.3879415,15.508866 C93.4350664,15.4625963 93.4656825,15.4059945 93.4812907,15.3462481 C92.248842,16.5377312 83.7636761,25.1477949 83.7213539,36.3372839" id="Fill-40"></path>
                <path d="M3.92681675,71.0343732 L7.79660348,71.0343732 L7.79660348,66.933587 L3.92681675,66.933587 L3.92681675,71.0343732 Z M3.92681675,66.2301074 L7.79660348,66.2301074 L7.79660348,62.1270751 L3.92681675,62.1270751 L3.92681675,66.2301074 Z M8.50182464,71.0343732 L12.3716114,71.0343732 L12.3716114,66.933587 L8.50182464,66.933587 L8.50182464,71.0343732 Z M8.50182464,66.2301074 L12.3716114,66.2301074 L12.3716114,62.1270751 L8.50182464,62.1270751 L8.50182464,66.2301074 Z M8.50182464,61.4234457 L12.3716114,61.4234457 L12.3716114,57.3226596 L8.50182464,57.3226596 L8.50182464,61.4234457 Z M8.50182464,56.6190302 L12.3716114,56.6190302 L12.3716114,52.5159979 L8.50182464,52.5159979 L8.50182464,56.6190302 Z M8.50182464,51.8123685 L12.3716114,51.8123685 L12.3716114,47.7115824 L8.50182464,47.7115824 L8.50182464,51.8123685 Z M14.5039336,80.1517568 C15.1903949,80.1517568 15.7766035,80.3598958 16.2613586,80.7760239 C16.7462638,81.1924515 17.0007978,81.7965036 17.02391,82.58833 L15.7314297,82.58833 C15.7071169,82.1403072 15.5342259,81.8218097 15.2124566,81.6329873 C14.9964929,81.5085531 14.7298025,81.445812 14.4102844,81.445812 C14.0553476,81.445812 13.7710979,81.5269712 13.5594866,81.6885409 C13.3480253,81.8504101 13.241169,82.0760686 13.241169,82.3659657 C13.241169,82.6323536 13.3457741,82.8310589 13.5551343,82.9625308 C13.6896051,83.0504284 13.9738547,83.1530004 14.4102844,83.2711455 L15.5408294,83.5794606 C16.0354897,83.7142268 16.4067852,83.8945141 16.6536651,84.1204721 C17.0371169,84.4708643 17.2289179,84.9781842 17.2289179,85.6419827 C17.2289179,86.3228515 17.0018483,86.8881209 16.5478594,87.3380903 C16.0928199,87.7880598 15.4503318,88.0131193 14.6196445,88.0131193 C13.7721485,88.0131193 13.1056477,87.7916535 12.6207425,87.3482727 C12.1347867,86.9051913 11.8913586,86.2958983 11.8913586,85.5208428 L13.1760348,85.5208428 C13.2179068,85.8610526 13.2995498,86.115611 13.4206635,86.2840688 C13.6444313,86.5907368 14.0268325,86.7442206 14.5678673,86.7442206 C14.8917378,86.7442206 15.1551264,86.7037907 15.3566825,86.622931 C15.7401343,86.4679498 15.9319352,86.1795501 15.9319352,85.7581811 C15.9319352,85.5123076 15.8382859,85.321838 15.6509874,85.1870718 C15.4624882,85.0554501 15.163981,84.9394015 14.7562164,84.8383268 L14.0598499,84.6613338 C13.3744392,84.485988 12.9039415,84.2955184 12.6471564,84.0899251 C12.2129779,83.7462712 11.9970142,83.2087038 11.9970142,82.4773725 C11.9970142,81.8099802 12.2086256,81.2556419 12.6328989,80.8139082 C13.0582227,80.3724739 13.6807504,80.1517568 14.5039336,80.1517568 L14.5039336,80.1517568 Z M13.0769826,71.0343732 L16.9467694,71.0343732 L16.9467694,66.933587 L13.0769826,66.933587 L13.0769826,71.0343732 Z M13.0769826,66.2301074 L16.9467694,66.2301074 L16.9467694,62.1270751 L13.0769826,62.1270751 L13.0769826,66.2301074 Z M13.0769826,61.4234457 L16.9467694,61.4234457 L16.9467694,57.3226596 L13.0769826,57.3226596 L13.0769826,61.4234457 Z M13.0769826,56.6190302 L16.9467694,56.6190302 L16.9467694,52.5159979 L13.0769826,52.5159979 L13.0769826,56.6190302 Z M13.0769826,51.8123685 L16.9467694,51.8123685 L16.9467694,47.7115824 L13.0769826,47.7115824 L13.0769826,51.8123685 Z M17.6519905,71.0343732 L21.5217773,71.0343732 L21.5217773,66.933587 L17.6519905,66.933587 L17.6519905,71.0343732 Z M17.6519905,66.2301074 L21.5217773,66.2301074 L21.5217773,62.1270751 L17.6519905,62.1270751 L17.6519905,66.2301074 Z M17.6519905,61.4234457 L21.5217773,61.4234457 L21.5217773,57.3226596 L17.6519905,57.3226596 L17.6519905,61.4234457 Z M17.6519905,56.6190302 L21.5217773,56.6190302 L21.5217773,52.5159979 L17.6519905,52.5159979 L17.6519905,56.6190302 Z M17.6519905,51.8123685 L21.5217773,51.8123685 L21.5217773,47.7115824 L17.6519905,47.7115824 L17.6519905,51.8123685 Z M22.2269984,71.0343732 L26.0967852,71.0343732 L26.0967852,66.933587 L22.2269984,66.933587 L22.2269984,71.0343732 Z M22.2269984,66.2301074 L26.0967852,66.2301074 L26.0967852,62.1270751 L22.2269984,62.1270751 L22.2269984,66.2301074 Z M22.2269984,61.4234457 L26.0967852,61.4234457 L26.0967852,57.3226596 L22.2269984,57.3226596 L22.2269984,61.4234457 Z M22.2269984,56.6190302 L26.0967852,56.6190302 L26.0967852,52.5159979 L22.2269984,52.5159979 L22.2269984,56.6190302 Z M22.2269984,51.8123685 L26.0967852,51.8123685 L26.0967852,47.7115824 L22.2269984,47.7115824 L22.2269984,51.8123685 Z M26.8021564,71.0343732 L30.6764455,71.0343732 L30.6764455,66.933587 L26.8021564,66.933587 L26.8021564,71.0343732 Z M26.8021564,66.2301074 L30.6764455,66.2301074 L30.6764455,62.1270751 L26.8021564,62.1270751 L26.8021564,66.2301074 Z M26.8021564,61.4234457 L30.6764455,61.4234457 L30.6764455,57.3226596 L26.8021564,57.3226596 L26.8021564,61.4234457 Z M26.8021564,56.6190302 L30.6764455,56.6190302 L30.6764455,52.5159979 L26.8021564,52.5159979 L26.8021564,56.6190302 Z M26.8021564,51.8123685 L30.6764455,51.8123685 L30.6764455,47.7115824 L26.8021564,47.7115824 L26.8021564,51.8123685 Z M30.7303239,80.3691796 L35.4519589,80.3691796 L35.4519589,81.6885409 L32.0450158,81.6885409 L32.0450158,83.2711455 L35.1732622,83.2711455 L35.1732622,84.5650509 L32.0450158,84.5650509 L32.0450158,86.4814264 L35.6095419,86.4814264 L35.6095419,87.8210026 L30.7303239,87.8210026 L30.7303239,80.3691796 Z M31.3816667,71.0343732 L35.2514534,71.0343732 L35.2514534,66.933587 L31.3816667,66.933587 L31.3816667,71.0343732 Z M31.3816667,66.2301074 L35.2514534,66.2301074 L35.2514534,62.1270751 L31.3816667,62.1270751 L31.3816667,66.2301074 Z M31.3816667,61.4234457 L35.2514534,61.4234457 L35.2514534,57.3226596 L31.3816667,57.3226596 L31.3816667,61.4234457 Z M31.3816667,56.6190302 L35.2514534,56.6190302 L35.2514534,52.5159979 L31.3816667,52.5159979 L31.3816667,56.6190302 Z M31.3816667,51.8123685 L35.2514534,51.8123685 L35.2514534,47.7115824 L31.3816667,47.7115824 L31.3816667,51.8123685 Z M35.9566746,71.0343732 L39.8264613,71.0343732 L39.8264613,66.933587 L35.9566746,66.933587 L35.9566746,71.0343732 Z M35.9566746,66.2301074 L39.8264613,66.2301074 L39.8264613,62.1270751 L35.9566746,62.1270751 L35.9566746,66.2301074 Z M35.9566746,61.4234457 L39.8264613,61.4234457 L39.8264613,57.3226596 L35.9566746,57.3226596 L35.9566746,61.4234457 Z M35.9566746,56.6190302 L39.8264613,56.6190302 L39.8264613,52.5159979 L35.9566746,52.5159979 L35.9566746,56.6190302 Z M35.9566746,51.8123685 L39.8264613,51.8123685 L39.8264613,47.7115824 L35.9566746,47.7115824 L35.9566746,51.8123685 Z M40.5316825,71.0343732 L44.4014692,71.0343732 L44.4014692,66.933587 L40.5316825,66.933587 L40.5316825,71.0343732 Z M40.5316825,66.2301074 L44.4014692,66.2301074 L44.4014692,62.1270751 L40.5316825,62.1270751 L40.5316825,66.2301074 Z M40.5316825,61.4234457 L44.4014692,61.4234457 L44.4014692,57.3226596 L40.5316825,57.3226596 L40.5316825,61.4234457 Z M40.5316825,56.6190302 L44.4014692,56.6190302 L44.4014692,52.5159979 L40.5316825,52.5159979 L40.5316825,56.6190302 Z M40.5316825,51.8123685 L44.4014692,51.8123685 L44.4014692,47.7115824 L40.5316825,47.7115824 L40.5316825,51.8123685 Z M45.1068404,71.0343732 L48.9766272,71.0343732 L48.9766272,66.933587 L45.1068404,66.933587 L45.1068404,71.0343732 Z M45.1068404,66.2301074 L48.9766272,66.2301074 L48.9766272,62.1270751 L45.1068404,62.1270751 L45.1068404,66.2301074 Z M45.1068404,61.4234457 L48.9766272,61.4234457 L48.9766272,57.3226596 L45.1068404,57.3226596 L45.1068404,61.4234457 Z M45.1068404,56.6190302 L48.9766272,56.6190302 L48.9766272,52.5159979 L45.1068404,52.5159979 L45.1068404,56.6190302 Z M45.1068404,51.8123685 L48.9766272,51.8123685 L48.9766272,47.7115824 L45.1068404,47.7115824 L45.1068404,51.8123685 Z M49.6818483,71.0343732 L53.5516351,71.0343732 L53.5516351,66.933587 L49.6818483,66.933587 L49.6818483,71.0343732 Z M49.6818483,66.2301074 L53.5516351,66.2301074 L53.5516351,62.1270751 L49.6818483,62.1270751 L49.6818483,66.2301074 Z M49.6818483,61.4234457 L53.5516351,61.4234457 L53.5516351,57.3226596 L49.6818483,57.3226596 L49.6818483,61.4234457 Z M49.6818483,56.6190302 L53.5516351,56.6190302 L53.5516351,52.5159979 L49.6818483,52.5159979 L49.6818483,56.6190302 Z M49.6818483,51.8123685 L53.5516351,51.8123685 L53.5516351,47.7115824 L49.6818483,47.7115824 L49.6818483,51.8123685 Z M53.6013112,87.8210026 L48.7220932,87.8210026 L48.7220932,80.3691796 L53.4437283,80.3691796 L53.4437283,81.6885409 L50.0366351,81.6885409 L50.0366351,83.2711455 L53.1648815,83.2711455 L53.1648815,84.5650509 L50.0366351,84.5650509 L50.0366351,86.4814264 L53.6013112,86.4814264 L53.6013112,87.8210026 Z M54.2570063,71.0343732 L58.126793,71.0343732 L58.126793,66.933587 L54.2570063,66.933587 L54.2570063,71.0343732 Z M54.2570063,66.2301074 L58.126793,66.2301074 L58.126793,62.1270751 L54.2570063,62.1270751 L54.2570063,66.2301074 Z M54.2570063,61.4234457 L58.126793,61.4234457 L58.126793,57.3226596 L54.2570063,57.3226596 L54.2570063,61.4234457 Z M54.2570063,56.6190302 L58.126793,56.6190302 L58.126793,52.5159979 L54.2570063,52.5159979 L54.2570063,56.6190302 Z M54.2570063,51.8123685 L58.126793,51.8123685 L58.126793,47.7115824 L54.2570063,47.7115824 L54.2570063,51.8123685 Z M58.4595182,80.3691796 L59.7135782,80.3691796 L59.7135782,87.8210026 L58.3681201,87.8210026 L55.7466904,82.5336748 L55.7466904,87.8210026 L54.493831,87.8210026 L54.493831,80.3691796 L55.9042733,80.3691796 L58.4595182,85.5650162 L58.4595182,80.3691796 Z M58.8320142,71.0343732 L62.7018009,71.0343732 L62.7018009,66.933587 L58.8320142,66.933587 L58.8320142,71.0343732 Z M58.8320142,66.2301074 L62.7018009,66.2301074 L62.7018009,62.1270751 L58.8320142,62.1270751 L58.8320142,66.2301074 Z M58.8320142,61.4234457 L62.7018009,61.4234457 L62.7018009,57.3226596 L58.8320142,57.3226596 L58.8320142,61.4234457 Z M58.8320142,56.6190302 L62.7018009,56.6190302 L62.7018009,52.5159979 L58.8320142,52.5159979 L58.8320142,56.6190302 Z M58.8320142,51.8123685 L62.7018009,51.8123685 L62.7018009,47.7115824 L58.8320142,47.7115824 L58.8320142,51.8123685 Z M63.4070221,71.0343732 L67.2768088,71.0343732 L67.2768088,66.933587 L63.4070221,66.933587 L63.4070221,71.0343732 Z M63.4070221,66.2301074 L67.2768088,66.2301074 L67.2768088,62.1270751 L63.4070221,62.1270751 L63.4070221,66.2301074 Z M63.4070221,61.4234457 L67.2768088,61.4234457 L67.2768088,57.3226596 L63.4070221,57.3226596 L63.4070221,61.4234457 Z M63.4070221,56.6190302 L67.2768088,56.6190302 L67.2768088,52.5159979 L63.4070221,52.5159979 L63.4070221,56.6190302 Z M63.4070221,51.8123685 L67.2768088,51.8123685 L67.2768088,47.7115824 L63.4070221,47.7115824 L63.4070221,51.8123685 Z M67.9821801,71.0343732 L71.8564692,71.0343732 L71.8564692,66.933587 L67.9821801,66.933587 L67.9821801,71.0343732 Z M67.9821801,66.2301074 L71.8564692,66.2301074 L71.8564692,62.1270751 L67.9821801,62.1270751 L67.9821801,66.2301074 Z M67.9821801,61.4234457 L71.8564692,61.4234457 L71.8564692,57.3226596 L67.9821801,57.3226596 L67.9821801,61.4234457 Z M67.9821801,56.6190302 L71.8564692,56.6190302 L71.8564692,52.5159979 L67.9821801,52.5159979 L67.9821801,56.6190302 Z M67.9821801,51.8123685 L71.8564692,51.8123685 L71.8564692,47.7115824 L67.9821801,47.7115824 L67.9821801,51.8123685 Z M72.0437678,80.3691796 L76.7664534,80.3691796 L76.7664534,81.6885409 L73.3593602,81.6885409 L73.3593602,83.2711455 L76.4865561,83.2711455 L76.4865561,84.5650509 L73.3593602,84.5650509 L73.3593602,86.4814264 L76.9228357,86.4814264 L76.9228357,87.8210026 L72.0437678,87.8210026 L72.0437678,80.3691796 Z M72.5615403,71.0343732 L76.431327,71.0343732 L76.431327,66.933587 L72.5615403,66.933587 L72.5615403,71.0343732 Z M72.5615403,66.2301074 L76.431327,66.2301074 L76.431327,62.1270751 L72.5615403,62.1270751 L72.5615403,66.2301074 Z M72.5615403,61.4234457 L76.431327,61.4234457 L76.431327,57.3226596 L72.5615403,57.3226596 L72.5615403,61.4234457 Z M72.5615403,56.6190302 L76.431327,56.6190302 L76.431327,52.5159979 L72.5615403,52.5159979 L72.5615403,56.6190302 Z M72.5615403,51.8123685 L76.431327,51.8123685 L76.431327,47.7115824 L72.5615403,47.7115824 L72.5615403,51.8123685 Z M77.1366983,71.0343732 L81.006485,71.0343732 L81.006485,66.933587 L77.1366983,66.933587 L77.1366983,71.0343732 Z M77.1366983,66.2301074 L81.006485,66.2301074 L81.006485,62.1270751 L77.1366983,62.1270751 L77.1366983,66.2301074 Z M77.1366983,61.4234457 L81.006485,61.4234457 L81.006485,57.3226596 L77.1366983,57.3226596 L77.1366983,61.4234457 Z M77.1366983,56.6190302 L81.006485,56.6190302 L81.006485,52.5159979 L77.1366983,52.5159979 L77.1366983,56.6190302 Z M77.1366983,51.8123685 L81.006485,51.8123685 L81.006485,47.7115824 L77.1366983,47.7115824 L77.1366983,51.8123685 Z M81.7117062,71.0343732 L85.5814929,71.0343732 L85.5814929,66.933587 L81.7117062,66.933587 L81.7117062,71.0343732 Z M81.7117062,66.2301074 L85.5814929,66.2301074 L85.5814929,62.1270751 L81.7117062,62.1270751 L81.7117062,66.2301074 Z M81.7117062,61.4234457 L85.5814929,61.4234457 L85.5814929,57.3226596 L81.7117062,57.3226596 L81.7117062,61.4234457 Z M81.7117062,56.6190302 L85.5814929,56.6190302 L85.5814929,52.5159979 L81.7117062,52.5159979 L81.7117062,56.6190302 Z M81.7117062,51.8123685 L85.5814929,51.8123685 L85.5814929,47.7115824 L81.7117062,47.7115824 L81.7117062,51.8123685 Z M82.3971169,87.8210026 L77.8374171,87.8210026 L77.8374171,80.3691796 L79.1828752,80.3691796 L79.1828752,86.4814264 L82.3971169,86.4814264 L82.3971169,87.8210026 Z M71.0906161,87.8210026 L66.2113981,87.8210026 L66.2113981,80.3691796 L70.9330332,80.3691796 L70.9330332,81.6885409 L67.52594,81.6885409 L67.52594,83.2711455 L70.6541864,83.2711455 L70.6541864,84.5650509 L67.52594,84.5650509 L67.52594,86.4814264 L71.0906161,86.4814264 L71.0906161,87.8210026 Z M65.3584992,87.8210026 L60.3878831,87.8210026 L60.3878831,86.5067325 L63.6780648,81.6885409 L60.4705766,81.6885409 L60.4705766,80.3691796 L65.3496445,80.3691796 L65.3496445,81.6178635 L62.0165403,86.5067325 L65.3584992,86.5067325 L65.3584992,87.8210026 Z M47.1728278,84.5955979 C46.7959795,84.9594667 46.2571959,85.1415508 45.5585782,85.1415508 L44.2176224,85.1415508 L44.2176224,87.8210026 L42.881019,87.8210026 L42.881019,80.3691796 L45.645624,80.3691796 C46.2825592,80.3691796 46.7904265,80.5612964 47.1695261,80.9453801 C47.5486256,81.3296135 47.7381754,81.9246812 47.7381754,82.7299842 C47.7381754,83.6097081 47.5496761,84.2314296 47.1728278,84.5955979 L47.1728278,84.5955979 Z M41.8010506,87.8210026 L40.3157188,87.8210026 C40.2750474,87.6558391 40.2451817,87.5228698 40.2276224,87.4216454 C40.1934044,87.2127578 40.1746445,86.9986292 40.1713428,86.7795592 L40.1626382,86.0870106 C40.1570853,85.6117351 40.0865482,85.2948848 39.9499763,85.1366094 C39.8132543,84.9781842 39.5576698,84.8988219 39.1830727,84.8988219 L37.8695814,84.8988219 L37.8695814,87.8210026 L36.5550395,87.8210026 L36.5550395,80.3691796 L39.6348104,80.3691796 C40.0743918,80.3790625 40.4126698,80.4431513 40.6506951,80.5612964 C40.8876698,80.6792917 41.0881754,80.8526909 41.2523618,81.0819432 C41.3889336,81.2707656 41.4969905,81.4796533 41.5763823,81.7089056 C41.655624,81.9381579 41.6953949,82.1991551 41.6953949,82.4924962 C41.6953949,82.8461827 41.6182543,83.1944785 41.4639731,83.5363354 C41.3096919,83.8784919 41.055158,84.1204721 40.7003712,84.2619766 C40.9967773,84.4001869 41.207188,84.5964963 41.3317536,84.850905 C41.4551185,85.1054634 41.5168009,85.4938896 41.5168009,86.0160338 L41.5168009,86.5166154 C41.5168009,86.8571247 41.5289573,87.0880241 41.5520695,87.209164 C41.5873381,87.4012807 41.6710821,87.542935 41.8010506,87.6338273 L41.8010506,87.8210026 Z M29.5326935,87.8210026 L28.19609,87.8210026 L28.19609,84.4945232 L25.693673,84.4945232 L25.693673,87.8210026 L24.3558689,87.8210026 L24.3558689,80.3691796 L25.693673,80.3691796 L25.693673,83.2103509 L28.19609,83.2103509 L28.19609,80.3691796 L29.5326935,80.3691796 L29.5326935,87.8210026 Z M19.573752,86.059159 C19.8646051,86.4752871 20.2359005,86.683426 20.6865877,86.683426 C21.1471801,86.683426 21.4998657,86.5050854 21.7422433,86.1476554 C21.8755134,85.9555387 21.986872,85.6672888 22.0749684,85.2830553 L23.4115719,85.2830553 C23.295861,86.0955458 23.0017062,86.7559003 22.5279068,87.2650171 C22.0541074,87.7736847 21.4468878,88.0282431 20.7063981,88.0282431 C19.7897156,88.0282431 19.0700869,87.6844395 18.5455608,86.9969821 C18.0211848,86.3060806 17.7588468,85.3588239 17.7588468,84.1558108 C17.7588468,82.8547179 18.0575039,81.8520572 18.6536177,81.1476791 C19.1725908,80.5341934 19.8315877,80.2276751 20.6337599,80.2276751 C21.7047235,80.2276751 22.4881359,80.6388618 22.9839968,81.4612352 C23.2572907,81.9230341 23.4039179,82.3863304 23.4247788,82.8514236 L22.0794708,82.8514236 C21.9934755,82.4941434 21.8833175,82.2244612 21.7498973,82.0425268 C21.5108215,81.7190879 21.1549842,81.5572187 20.6843365,81.5572187 C20.2051343,81.5572187 19.8270853,81.7855726 19.5504897,82.2421305 C19.2740442,82.6988383 19.1350711,83.3452669 19.1350711,84.1808174 C19.1350711,85.0169669 19.2806477,85.6428811 19.573752,86.059159 L19.573752,86.059159 Z M86.2868641,71.0343732 L90.1566509,71.0343732 L90.1566509,66.933587 L86.2868641,66.933587 L86.2868641,71.0343732 Z M86.2868641,66.2301074 L90.1566509,66.2301074 L90.1566509,62.1270751 L86.2868641,62.1270751 L86.2868641,66.2301074 Z M86.2868641,61.4234457 L90.1566509,61.4234457 L90.1566509,57.3226596 L86.2868641,57.3226596 L86.2868641,61.4234457 Z M3.28327804,71.7380026 C3.22594787,72.6610014 3.18737757,73.5971774 3.18737757,74.5538678 C3.18737757,74.5707884 3.18827804,74.5869603 3.18842812,74.603881 C3.19082938,74.515684 3.20733807,74.3946939 3.23105055,74.2575318 L3.1885782,74.6157105 C3.21379147,83.9675873 8.91604265,90.2762933 16.8300079,94.0313292 C20.4310032,95.749898 46.6340442,104.82775 47.4461216,107.092871 C48.2581991,104.82775 74.4523855,95.749898 78.0523302,94.0313292 C85.9925592,90.2680576 91.7036651,83.9400351 91.7036651,74.5538678 C91.7036651,73.5971774 91.6650948,72.6610014 91.6079147,71.7380026 L93.4649921,71.7380026 C93.4493839,71.5153388 93.4342259,71.3016595 93.4207188,71.1060988 L93.4282227,71.1060988 C93.4265719,71.0831885 93.4243207,71.0580322 93.4225197,71.0343732 L90.861872,71.0343732 L90.861872,66.933587 L92.9584755,66.933587 C92.9275592,66.7101746 92.8973934,66.4973937 92.8687283,66.3016832 L92.8727804,66.3016832 C92.8691785,66.2790724 92.8648262,66.2546648 92.860624,66.2299576 L90.861872,66.2299576 L90.861872,62.1270751 L92.0278357,62.1270751 C91.9768088,61.9033632 91.9272828,61.6901331 91.8807583,61.4950216 L91.8843602,61.4950216 C91.8788073,61.4730098 91.8723539,61.4484524 91.8656003,61.4234457 L90.861872,61.4234457 L90.861872,58.0409635 C90.5872275,57.1579453 90.3239889,56.3285341 90.1566509,55.8077376 L90.1566509,56.6190302 L86.2868641,56.6190302 L86.2868641,52.5159979 L88.8811295,52.5159979 C88.8077409,52.3436469 88.7095893,52.1166407 88.6051343,51.8840941 L88.6261453,51.8840941 C88.6162401,51.8608844 88.6052844,51.8360275 88.5952291,51.8123685 L86.2868641,51.8123685 L86.2868641,47.7115824 L86.7276461,47.7115824 C86.6243918,47.4920632 86.5263902,47.284673 86.4376935,47.0980966 L86.4300395,47.0796786 C86.4183333,47.0552709 86.4072275,47.0322109 86.3956714,47.007953 L8.49116904,47.007953 C8.47946288,47.0322109 8.46835703,47.0552709 8.45665087,47.0796786 L8.460703,47.0796786 C8.27760664,47.4693027 8.04483412,47.9677879 7.79660348,48.5023606 L7.79660348,51.8123685 L6.29161137,51.8123685 C6.28095577,51.8369259 6.27030016,51.8613336 6.26054502,51.8840941 L6.26459716,51.8840941 C6.18460506,52.0775585 6.0978594,52.2906389 6.00691153,52.5159979 L7.79660348,52.5159979 L7.79660348,56.6190302 L4.4499921,56.6190302 C4.44173776,56.6426892 4.43273302,56.6676958 4.42492891,56.690606 L4.4292812,56.690606 C4.36189573,56.8870652 4.28565561,57.1094295 4.21271722,57.3226596 L7.79660348,57.3226596 L7.79660348,61.4234457 L3.92681675,61.4234457 L3.92681675,58.2270906 C3.75737757,58.8241049 3.43815956,59.9434132 3.22159558,60.7094843 L3.22159558,61.4234457 L3.02154028,61.4234457 C3.01298578,61.4545917 3.00608215,61.4800475 3.00233017,61.4950216 L3.0078831,61.4950216 C2.962109,61.6910315 2.91318325,61.9042616 2.86275671,62.1270751 L3.22159558,62.1270751 L3.22159558,66.2299576 L2.02606635,66.2299576 C2.02201422,66.2537663 2.01766193,66.278773 2.01390995,66.3016832 L2.01901264,66.3016832 C1.99034755,66.4973937 1.96033175,66.7106238 1.92956556,66.933587 L3.22159558,66.933587 L3.22159558,71.0343732 L1.4643207,71.0343732 C1.46221959,71.0590803 1.46011848,71.0836377 1.45861769,71.1060988 L1.46161927,71.1060988 C1.4286019,71.61267 1.37982622,72.2700296 1.33825434,72.9227473 C1.36676935,72.5287808 1.39753555,72.1361619 1.42109795,71.7380026 L3.28327804,71.7380026 Z" id="Fill-42"></path>
                <path d="M54.1720916,35.6568793 C52.681207,35.6624197 52.9478973,36.7739414 52.930188,37.6473763 C52.8707567,40.7514914 51.3138373,43.1558704 48.809169,45.7008555 C53.5351564,45.1269012 56.7791137,41.3958236 56.3516888,37.8397925 C56.1918547,36.5062059 55.6518705,35.6513389 54.1720916,35.6568793" id="Fill-44"></path>
                <path d="M57.4777765,40.5596891 C57.4557148,40.6418965 57.7609755,40.9018456 57.7797354,40.8883689 C58.3802014,40.4662512 58.5575948,39.8791197 58.2403278,38.2861831 C57.7972946,39.5721522 57.6089455,40.0586583 57.4777765,40.5596891" id="Fill-45"></path>
                <path d="M67.7584423,9.13147418 L66.4273918,9.13147418 L66.4273918,10.5697292 L67.0763333,10.5697292 C67.0620758,10.9689366 66.995891,11.2729093 66.8758278,11.4814975 C66.7568152,11.6903851 66.5705671,11.8473129 66.3172338,11.9528798 L66.6202433,12.4345941 C67.0389637,12.2463706 67.3452749,11.9690517 67.5381264,11.6018886 C67.685654,11.3266661 67.7584423,10.8817878 67.7584423,10.2669544 L67.7584423,9.13147418 Z" id="Fill-46"></path>
                <path d="M45.4296603,81.6632348 L44.2176224,81.6632348 L44.2176224,83.8573785 L45.4296603,83.8573785 C45.7370221,83.8573785 45.9750474,83.7679836 46.1458373,83.5893435 C46.3166272,83.4110028 46.4015719,83.1278441 46.4015719,82.7401666 C46.4015719,82.3524891 46.3166272,82.0760686 46.1458373,81.9112046 C45.9750474,81.7458914 45.7370221,81.6632348 45.4296603,81.6632348" id="Fill-47"></path>
            </g>
        </g>
    </g>
</svg>